<?xml version="1.0" encoding="utf-8"?>
<!-- Generator: Adobe Illustrator 23.1.0, SVG Export Plug-In . SVG Version: 6.00 Build 0)  -->
<svg version="1.1" id="Capa_1" xmlns="http://www.w3.org/2000/svg" xmlns:xlink="http://www.w3.org/1999/xlink" x="0px" y="0px"
	 viewBox="0 0 42.7 42.7" style="enable-background:new 0 0 42.7 42.7;" xml:space="preserve">
<path d="M41.2,0H16.5c0,0,0,0,0,0h-6.2c0,0,0,0,0,0H1.5C0.7,0,0,0.7,0,1.5v39.7c0,0.8,0.7,1.5,1.5,1.5h39.7c0.8,0,1.5-0.7,1.5-1.5
	V1.5C42.7,0.7,42,0,41.2,0z M26.2,24.8h1.6v14.8H14.9V24.8h1.6c0.8,0,1.5-0.7,1.5-1.5V3h6.6v20.3C24.7,24.2,25.3,24.8,26.2,24.8z
	 M3,3h5.8v20.3c0,0.8,0.7,1.5,1.5,1.5h1.6v14.8H3C3,39.7,3,3,3,3z M39.7,39.7h-8.9V24.8h1.6c0.8,0,1.5-0.7,1.5-1.5V3h5.8V39.7z"/>
</svg>
