<?xml version="1.0" encoding="utf-8"?>
<!-- Generator: Adobe Illustrator 23.1.0, SVG Export Plug-In . SVG Version: 6.00 Build 0)  -->
<svg version="1.1" id="Capa_1" xmlns="http://www.w3.org/2000/svg" xmlns:xlink="http://www.w3.org/1999/xlink" x="0px" y="0px"
	 viewBox="0 0 212.1 41.3" style="enable-background:new 0 0 212.1 41.3;" xml:space="preserve">
<style type="text/css">
	.st0{fill:#654074;}
	.st1{fill:#FFFFFF;}
</style>
<path class="st0" d="M212.1,28.4c0,7.2-5,13-11.2,13H11.2C5,41.3,0,35.5,0,28.4V13C0,5.8,5,0,11.2,0h189.8c6.2,0,11.2,5.8,11.2,13
	V28.4z"/>
<g>
	<path class="st1" d="M72.9,21.6c-1.1,0.7-2.3,1.3-3.7,1.8c-0.1,0.6-0.2,1.2-0.2,1.7c0,1.2,0.4,1.7,1.2,1.7c1,0,2-0.6,2.8-1.8
		l0.3,0.1c-0.4,0.7-0.9,1.2-1.6,1.7c-0.7,0.5-1.3,0.7-2.1,0.7c-0.7,0-1.3-0.2-1.7-0.6c-0.4-0.4-0.6-1.1-0.6-1.9
		c0-0.9,0.3-1.9,0.8-3.1c0.5-1.1,1.3-2.1,2.2-2.9c0.9-0.8,1.9-1.2,3-1.2c0.4,0,0.7,0.1,1,0.3s0.4,0.5,0.4,0.9
		C74.5,20,74,20.8,72.9,21.6z M71.5,18.8c-0.5,0.5-0.9,1-1.3,1.8c-0.4,0.7-0.7,1.5-0.9,2.4c1.1-0.4,2-0.8,2.4-1.2
		c0.4-0.3,0.8-0.8,1-1.3c0.2-0.5,0.4-1,0.4-1.6c0-0.3,0-0.5-0.1-0.6c0-0.1-0.1-0.2-0.2-0.2C72.4,18.2,72,18.4,71.5,18.8z"/>
	<path class="st1" d="M88.4,24.4l-0.5,1.3c-0.4,1.2-1.2,1.9-2.2,1.9c-0.5,0-0.9-0.2-1.1-0.5c-0.1-0.2-0.2-0.4-0.2-0.6
		c0-0.3,0.1-0.8,0.3-1.4l1.7-5.1c0.1-0.4,0.2-0.7,0.2-1c0-0.4-0.1-0.6-0.4-0.6c-0.7,0-1.5,0.8-2.3,2.3c-0.9,1.6-1.7,3.6-2.5,6.2
		l0-0.1l-0.1,0.5h-1.6l2.3-7.4c0.1-0.4,0.2-0.7,0.2-0.9c0-0.4-0.2-0.6-0.5-0.6c-0.4,0-0.9,0.4-1.5,1.1c-0.6,0.7-1.1,1.7-1.6,2.9
		c-0.5,1.2-1,2.5-1.4,4l-0.3,1h-1.6l2.2-7.7c0.1-0.3,0.1-0.6,0.1-0.7c0-0.3-0.1-0.5-0.4-0.5c-0.3,0-0.5,0.1-0.7,0.4
		c-0.2,0.3-0.4,0.8-0.7,1.4L75.6,21h-0.3l0.5-1.3c0.4-1.2,1.2-1.9,2.2-1.9c0.7,0,1,0.4,1,1.1c0,0.3-0.1,0.8-0.3,1.4l-0.6,2.3
		c0.7-1.8,1.4-3,2-3.7c0.6-0.7,1.4-1.1,2.1-1.1s1.2,0.4,1.2,1.3c0,0.4-0.1,0.9-0.3,1.5l-0.6,2.4c0.5-1.3,1-2.3,1.4-3
		c0.4-0.7,0.9-1.3,1.4-1.6s1-0.5,1.5-0.5c0.8,0,1.3,0.5,1.3,1.3c0,0.4-0.1,0.8-0.3,1.4l-1.7,5.3c-0.1,0.3-0.1,0.5-0.1,0.7
		c0,0.3,0.1,0.4,0.4,0.4c0.2,0,0.5-0.1,0.7-0.4c0.2-0.3,0.5-0.7,0.7-1.4l0.2-0.7H88.4z"/>
	<path class="st1" d="M98,18.5c0.3,0.4,0.5,1.1,0.5,1.9c0,1-0.2,2-0.6,3.2c-0.4,1.1-1.1,2.1-1.9,2.9s-1.7,1.2-2.8,1.2
		c-0.3,0-0.6-0.1-0.9-0.3c-0.3-0.2-0.5-0.4-0.6-0.8l-0.7,2.4c0,0.1-0.1,0.3-0.1,0.4c0,0.3,0.1,0.5,0.4,0.7s0.6,0.2,1.1,0.2l-0.1,0.4
		l-0.4,0c-1,0-1.7-0.1-2-0.1c-0.3,0-1,0-2,0.1l0.1-0.4c0.4,0,0.7-0.1,0.9-0.2c0.2-0.2,0.3-0.5,0.5-0.9l3.4-12
		c-0.4,0.8-0.8,1.5-1.3,2.1c-0.5,0.6-1.1,1.3-1.8,1.9l-0.2-0.2c0.6-0.6,1-1,1.4-1.5c0.4-0.4,0.8-1,1.1-1.6s0.8-1.4,1.1-2.3l0.1-0.3
		c0.6,0,1.2-0.1,1.6-0.3l-1.9,6.6c0.6-1.3,1.1-2.3,1.7-2.9c0.6-0.6,1.1-0.9,1.8-0.9C97.2,17.8,97.7,18,98,18.5z M95.1,26
		c0.6-0.8,1-1.8,1.4-2.9c0.4-1.1,0.5-2.2,0.5-3.1c0-0.5-0.1-0.9-0.2-1.2c-0.2-0.3-0.4-0.4-0.6-0.4c-0.3,0-0.7,0.3-1.2,0.8
		c-0.5,0.5-0.9,1.3-1.4,2.2c-0.5,0.9-0.9,1.9-1.2,3l-0.5,1.6c0.1,0.4,0.3,0.7,0.5,0.8s0.5,0.3,0.8,0.3C93.9,27.2,94.5,26.8,95.1,26z
		"/>
	<path class="st1" d="M105.1,21.6c-1.1,0.7-2.3,1.3-3.7,1.8c-0.1,0.6-0.2,1.2-0.2,1.7c0,1.2,0.4,1.7,1.2,1.7c1,0,2-0.6,2.8-1.8
		l0.3,0.1c-0.4,0.7-0.9,1.2-1.6,1.7c-0.7,0.5-1.3,0.7-2.1,0.7c-0.7,0-1.3-0.2-1.7-0.6c-0.4-0.4-0.6-1.1-0.6-1.9
		c0-0.9,0.3-1.9,0.8-3.1c0.5-1.1,1.3-2.1,2.2-2.9s1.9-1.2,3-1.2c0.4,0,0.7,0.1,1,0.3s0.4,0.5,0.4,0.9
		C106.7,20,106.2,20.8,105.1,21.6z M103.7,18.8c-0.5,0.5-0.9,1-1.3,1.8c-0.4,0.7-0.7,1.5-0.9,2.4c1.1-0.4,2-0.8,2.4-1.2
		c0.4-0.3,0.8-0.8,1-1.3s0.4-1,0.4-1.6c0-0.3,0-0.5-0.1-0.6s-0.1-0.2-0.2-0.2C104.6,18.2,104.2,18.4,103.7,18.8z"/>
	<path class="st1" d="M108.7,25.9c0.3-0.1,0.7-0.2,1-0.2c0.2,0,0.4,0,0.5,0.1c0.2,0,0.4,0.1,0.6,0.2c0.3,0.1,0.5,0.2,0.7,0.2
		c0.2,0,0.4,0.1,0.6,0.1c0.3,0,0.6-0.1,0.7-0.2c0.2-0.1,0.3-0.4,0.3-0.7c0-0.3-0.1-0.6-0.4-0.8c-0.3-0.2-0.6-0.4-1-0.5l0.1-0.3
		c0.6,0.1,1,0.3,1.3,0.6c0.3,0.3,0.5,0.7,0.5,1.1c0,0.5-0.2,1-0.5,1.3c-0.3,0.4-0.9,0.5-1.6,0.5c-0.3,0-0.5,0-0.7-0.1
		c-0.2-0.1-0.5-0.2-0.7-0.3c-0.3-0.1-0.6-0.2-0.8-0.3c-0.2-0.1-0.5-0.1-0.8-0.1c-0.3,0-0.6,0-0.9,0.1c-0.3,0.1-0.5,0.3-0.7,0.5h-0.5
		l8.1-8.5c-0.5,0.3-1,0.6-1.3,0.7c-0.3,0.1-0.7,0.2-1,0.2c-0.2,0-0.4,0-0.5-0.1s-0.4-0.1-0.6-0.2c-0.3-0.1-0.5-0.2-0.7-0.2
		c-0.2,0-0.4-0.1-0.6-0.1c-0.3,0-0.6,0.1-0.7,0.2s-0.3,0.4-0.3,0.7c0,0.3,0.1,0.6,0.4,0.8c0.3,0.2,0.6,0.4,1,0.5l-0.1,0.3
		c-0.6-0.1-1-0.3-1.3-0.6c-0.3-0.3-0.5-0.7-0.5-1.1c0-0.5,0.2-1,0.5-1.3s0.9-0.5,1.6-0.5c0.3,0,0.5,0,0.7,0.1
		c0.2,0.1,0.5,0.2,0.7,0.3c0.3,0.1,0.6,0.2,0.8,0.3c0.2,0.1,0.5,0.1,0.8,0.1c0.3,0,0.6,0,0.9-0.1c0.3-0.1,0.5-0.3,0.7-0.5h0.5
		l-8.1,8.5C107.9,26.3,108.4,26,108.7,25.9z"/>
	<path class="st1" d="M123.1,24.4h0.3l-0.5,1.3c-0.2,0.7-0.5,1.1-0.9,1.4c-0.4,0.3-0.8,0.4-1.2,0.4c-0.2,0-0.4,0-0.6-0.1
		s-0.3-0.2-0.4-0.3c-0.1-0.2-0.2-0.4-0.2-0.6c0-0.3,0-0.5,0.1-0.8c0.1-0.3,0.1-0.5,0.2-0.6l0.3-1.3c-0.6,1.3-1.2,2.3-1.8,2.9
		c-0.6,0.6-1.2,0.9-1.9,0.9c-0.6,0-1-0.2-1.3-0.6c-0.3-0.4-0.4-0.9-0.4-1.6c0-1,0.3-2.1,0.8-3.3c0.5-1.2,1.2-2.2,2-3.1
		c0.8-0.8,1.7-1.3,2.5-1.3c0.3,0,0.6,0.1,0.8,0.4c0.2,0.2,0.3,0.6,0.4,1l0.3-1.1c0.7,0,1.2-0.1,1.7-0.3l-2.3,8c0,0,0,0.1-0.1,0.3
		c0,0.1-0.1,0.3-0.1,0.4c0,0.3,0.1,0.5,0.4,0.5c0.5,0,1-0.6,1.4-1.8L123.1,24.4z M118.5,26.2c0.5-0.5,0.9-1.2,1.4-2.1
		c0.5-0.9,0.8-1.8,1.1-2.7l0.3-1.3c0-0.1,0-0.2,0-0.4c0-0.5-0.1-0.9-0.3-1.2c-0.2-0.3-0.4-0.4-0.7-0.4c-0.5,0-1.1,0.4-1.6,1.2
		c-0.6,0.8-1.1,1.8-1.4,3c-0.4,1.2-0.6,2.3-0.6,3.3c0,0.5,0.1,0.8,0.2,1.1c0.1,0.2,0.3,0.3,0.5,0.3C117.7,27,118.1,26.7,118.5,26.2z
		"/>
	<path class="st1" d="M132.2,18.1c0.2,0.2,0.3,0.4,0.3,0.7c0,0.4-0.1,0.7-0.4,0.9s-0.5,0.4-0.9,0.4c-0.2,0-0.4-0.1-0.5-0.2
		c-0.1-0.1-0.2-0.3-0.2-0.5c0-0.3,0.1-0.5,0.2-0.7c0.1-0.2,0.3-0.3,0.6-0.5c0,0-0.1-0.1-0.2-0.1c-0.6,0-1.4,0.7-2.1,2.1
		c-0.8,1.4-1.5,3.2-2.2,5.5l-0.4,1.4H125l2.2-7.7c0.1-0.3,0.1-0.5,0.1-0.7c0-0.3-0.1-0.4-0.4-0.4c-0.3,0-0.5,0.1-0.7,0.4
		c-0.2,0.3-0.4,0.8-0.7,1.4l-0.2,0.7h-0.3l0.5-1.3c0.4-1.2,1.2-1.9,2.2-1.9c0.7,0,1,0.3,1,1c0,0.3-0.1,0.8-0.3,1.5l-0.6,2.3
		c0.6-1.7,1.3-3,1.8-3.7c0.6-0.7,1.2-1.1,1.9-1.1C131.8,17.8,132.1,17.9,132.2,18.1z"/>
</g>
</svg>
