<?xml version="1.0" encoding="utf-8"?>
<!-- Generator: Adobe Illustrator 23.1.0, SVG Export Plug-In . SVG Version: 6.00 Build 0)  -->
<svg version="1.1" id="Capa_1" xmlns="http://www.w3.org/2000/svg" xmlns:xlink="http://www.w3.org/1999/xlink" x="0px" y="0px"
	 viewBox="0 0 78.4 15.5" style="enable-background:new 0 0 78.4 15.5;" xml:space="preserve">
<style type="text/css">
	.st0{fill:#FFFFFF;}
	.st1{fill:#654074;}
</style>
<path class="st0" d="M70.7,15.5H7.8C3.5,15.5,0,12.1,0,7.8v0C0,3.5,3.5,0,7.8,0h62.9c4.3,0,7.8,3.5,7.8,7.8v0
	C78.4,12.1,75,15.5,70.7,15.5z"/>
<g>
	<path class="st1" d="M17.7,3.6c1.5,0,2.4,0.8,2.4,1.9c0,0.9-0.6,1.7-2,1.9c1.1,0.2,1.4,0.7,1.6,1.1l0.7,1.2
		c0.3,0.5,0.4,0.6,0.7,0.6v0.2h-2.2c-0.2-0.3-0.4-0.7-0.6-1.2l-0.4-1c-0.2-0.4-0.4-0.8-0.6-1h-0.4V10c0,0.3,0.1,0.3,0.6,0.4v0.2
		h-2.9v-0.2c0.5-0.1,0.6-0.1,0.6-0.4V4.2c0-0.3-0.1-0.3-0.6-0.4V3.6H17.7z M16.7,3.9v3.3h0.4c0.9,0,1.1-0.6,1.1-1.6
		c0-0.9-0.2-1.7-1-1.7H16.7z"/>
	<path class="st1" d="M25.9,7.2c0,0.2,0,0.4-0.1,0.6H23v0.1c0,1.5,0.8,2,1.6,2c0.5,0,0.9-0.2,1.2-0.4l0.1,0.2
		c-0.2,0.2-0.8,0.9-2,0.9c-1.7,0-2.5-1.2-2.5-2.5c0-1.7,1.4-2.6,2.6-2.6C25,5.5,25.9,6,25.9,7.2z M23,7.5h1.4
		c0.1-0.2,0.1-0.6,0.1-0.7c0-0.7-0.3-0.9-0.6-0.9C23.4,5.9,23.1,6.4,23,7.5z"/>
	<path class="st1" d="M28.2,8.9C28.1,9,28,9.1,28,9.3c0,0.2,0.1,0.3,0.5,0.3l1.5,0.1c1.2,0,1.7,0.7,1.7,1.4c0,1.2-1.4,1.7-3.1,1.7
		c-1.3,0-2.1-0.3-2.1-0.9c0-0.4,0.6-0.7,1-0.9c-0.3-0.1-0.6-0.4-0.6-0.9c0-0.5,0.6-0.9,1.1-1.1c-0.7-0.3-1.1-0.8-1.1-1.6
		c0-1,0.9-1.7,2.1-1.7c0.5,0,0.9,0.1,1.2,0.3l1.5-0.2v0.6l-1-0.1c0.3,0.3,0.5,0.7,0.5,1.1c0,1-0.8,1.8-2.1,1.8
		C28.7,9,28.5,9,28.2,8.9z M27.8,10.9c-0.1,0.2-0.2,0.4-0.2,0.6c0,0.7,0.6,0.9,1.3,0.9c0.6,0,1.4-0.2,1.4-0.8c0-0.4-0.3-0.5-0.7-0.6
		L27.8,10.9z M29.1,8.7c0.5,0,0.5-0.5,0.5-1.3c0-1.2-0.3-1.5-0.6-1.5c-0.4,0-0.6,0.4-0.6,1.3C28.4,8.4,28.7,8.7,29.1,8.7z"/>
	<path class="st1" d="M34.6,10c0,0.3,0.1,0.3,0.6,0.4v0.2h-2.8v-0.2c0.5,0,0.6-0.1,0.6-0.4V6.5c0-0.4-0.1-0.4-0.6-0.5V5.9l2.1-0.3
		h0.1V10z M33.7,5.1L33.6,5l0.8-1.4c0.1-0.2,0.2-0.2,0.4-0.2c0.3,0,0.5,0.2,0.5,0.5c0,0.1-0.1,0.3-0.2,0.4L33.7,5.1z"/>
	<path class="st1" d="M39.3,7.1C39,6.4,38.5,5.9,38,5.9c-0.3,0-0.6,0.2-0.6,0.6c0,1.1,2.4,1.1,2.4,2.7c0,0.9-0.8,1.6-2.1,1.6
		c-0.5,0-1.2-0.1-1.6-0.3L35.9,9h0.2c0.3,1.1,1,1.4,1.5,1.4c0.4,0,0.7-0.2,0.7-0.7c0-1-2.5-1-2.5-2.8c0-0.8,0.6-1.5,1.9-1.5
		c0.5,0,1.1,0.1,1.5,0.3l0.1,1.3H39.3z"/>
	<path class="st1" d="M42.7,9.3c0,0.6,0.1,0.9,0.5,0.9c0.3,0,0.5-0.1,0.7-0.2l0,0.2c-0.5,0.4-1.1,0.6-1.7,0.6
		c-0.8,0-1.3-0.3-1.3-1.2V6h-0.6V5.7L41,5.6l1.4-1.5h0.3v1.5h1.1V6h-1.1V9.3z"/>
	<path class="st1" d="M44.6,10.4c0.5,0,0.6-0.1,0.6-0.4V6.5c0-0.4-0.1-0.4-0.6-0.5V5.9l2.1-0.3h0.1l-0.1,1.1h0.1
		c0.3-0.6,0.7-1.1,1.3-1.1c0.3,0,0.7,0.3,0.7,0.8c0,0.4-0.3,0.7-0.6,0.7c-0.4,0-0.5-0.3-0.8-0.3c-0.2,0-0.3,0.1-0.5,0.3V10
		c0,0.3,0.1,0.3,0.8,0.4v0.2h-3V10.4z"/>
	<path class="st1" d="M53.6,9.9c0,0.1,0.1,0.2,0.2,0.2c0.1,0,0.3-0.1,0.4-0.1l0,0.2c-0.4,0.3-0.9,0.6-1.5,0.6
		c-0.6,0-0.8-0.3-0.8-0.7V9.9h0c-0.3,0.5-0.8,0.8-1.4,0.8c-0.8,0-1.2-0.5-1.2-1.2c0-0.6,0.5-1.5,2.6-1.6V7c0-0.5-0.3-1-0.9-1
		c-0.4,0-0.7,0.3-0.7,0.6c0,0.3,0.4,0.4,0.4,0.7c0,0.2-0.3,0.4-0.6,0.4c-0.3,0-0.6-0.1-0.6-0.5c0-0.6,0.8-1.6,2.3-1.6
		c1.2,0,1.9,0.7,1.9,1.5V9.9z M51.9,8.2c-0.6,0.1-0.9,0.3-0.9,0.9c0,0.4,0.2,0.6,0.5,0.6c0.2,0,0.3-0.1,0.5-0.2V8.2z"/>
	<path class="st1" d="M56.9,9.3c0,0.6,0.1,0.9,0.5,0.9c0.3,0,0.5-0.1,0.7-0.2l0,0.2c-0.5,0.4-1.1,0.6-1.7,0.6
		c-0.8,0-1.3-0.3-1.3-1.2V6h-0.6V5.7l0.6-0.1l1.4-1.5h0.3v1.5H58V6h-1.1V9.3z"/>
	<path class="st1" d="M63.3,7.2c0,0.2,0,0.4-0.1,0.6h-2.9v0.1c0,1.5,0.8,2,1.6,2c0.5,0,0.9-0.2,1.2-0.4l0.1,0.2
		c-0.2,0.2-0.8,0.9-2,0.9c-1.7,0-2.5-1.2-2.5-2.5c0-1.7,1.4-2.6,2.6-2.6C62.3,5.5,63.3,6,63.3,7.2z M60.3,7.5h1.4
		c0.1-0.2,0.1-0.6,0.1-0.7c0-0.7-0.3-0.9-0.6-0.9C60.7,5.9,60.4,6.4,60.3,7.5z"/>
</g>
</svg>
