<?xml version="1.0" encoding="utf-8"?>
<!-- Generator: Adobe Illustrator 23.1.0, SVG Export Plug-In . SVG Version: 6.00 Build 0)  -->
<svg version="1.1" id="Capa_1" xmlns="http://www.w3.org/2000/svg" xmlns:xlink="http://www.w3.org/1999/xlink" x="0px" y="0px"
	 viewBox="0 0 48.1 49.8" style="enable-background:new 0 0 48.1 49.8;" xml:space="preserve">
<style type="text/css">
	.st0{fill:#785C22;}
</style>
<g>
	<g>
		<path class="st0" d="M4.5,42.6c-0.8,0.5-1.7,0.9-2.7,1.3c-0.1,0.4-0.1,0.8-0.1,1.2c0,0.8,0.3,1.2,0.9,1.2c0.7,0,1.4-0.4,2-1.3
			l0.2,0.1c-0.3,0.5-0.6,0.9-1.1,1.2c-0.5,0.3-1,0.5-1.5,0.5c-0.5,0-0.9-0.2-1.2-0.5s-0.4-0.8-0.4-1.3c0-0.6,0.2-1.4,0.6-2.2
			s0.9-1.5,1.5-2.1c0.6-0.6,1.4-0.9,2.1-0.9c0.3,0,0.5,0.1,0.7,0.2c0.2,0.1,0.3,0.4,0.3,0.6C5.7,41.5,5.3,42.1,4.5,42.6z M3.5,40.7
			c-0.3,0.3-0.7,0.7-0.9,1.3c-0.3,0.5-0.5,1.1-0.7,1.7c0.8-0.3,1.4-0.6,1.7-0.8c0.3-0.2,0.6-0.5,0.7-0.9c0.2-0.4,0.3-0.7,0.3-1.1
			c0-0.2,0-0.4-0.1-0.5s-0.1-0.1-0.2-0.1C4.2,40.2,3.9,40.3,3.5,40.7z"/>
		<path class="st0" d="M6.9,46.6c0.1,0,0.2,0,0.3,0c0.4,0,0.7-0.1,0.9-0.3s0.4-0.6,0.4-1c0-0.3-0.1-0.5-0.2-0.8
			c-0.1-0.3-0.3-0.6-0.5-0.9c-0.3-0.4-0.5-0.7-0.6-1C7.1,42.4,7,42.1,7,41.8c0-0.3,0.1-0.7,0.3-0.9c0.2-0.3,0.4-0.5,0.7-0.6
			c0.3-0.2,0.6-0.2,1-0.2c0.4,0,0.8,0.1,1.1,0.2c0.3,0.2,0.4,0.5,0.4,0.9c0,0.2,0,0.3-0.1,0.4s-0.2,0.2-0.4,0.2
			c-0.1,0-0.3-0.1-0.4-0.2s-0.1-0.2-0.1-0.4c0-0.3,0.1-0.6,0.4-0.9c-0.2-0.1-0.4-0.2-0.6-0.2c-0.3,0-0.6,0.1-0.8,0.3
			C8.1,40.7,8,41,8,41.4c0,0.2,0,0.4,0.1,0.6c0.1,0.2,0.2,0.4,0.4,0.7L8.8,43c0.3,0.4,0.4,0.7,0.6,1c0.1,0.3,0.2,0.6,0.2,0.9
			c0,0.4-0.1,0.7-0.3,1s-0.5,0.5-0.8,0.7c-0.3,0.2-0.7,0.3-1.1,0.3c-0.5,0-0.9-0.1-1.2-0.3c-0.3-0.2-0.5-0.5-0.5-1
			c0-0.1,0-0.3,0.1-0.4C5.8,45.1,6,45,6.1,45c0.2,0,0.3,0.1,0.4,0.2c0.1,0.2,0.1,0.3,0.1,0.6c0,0.1,0,0.4-0.1,0.7
			C6.7,46.6,6.8,46.6,6.9,46.6z"/>
		<path class="st0" d="M13.6,40.9c-0.4,0.5-0.8,1.1-1,1.8c-0.3,0.8-0.4,1.6-0.4,2.4c0,0.4,0.1,0.7,0.2,0.9c0.2,0.2,0.4,0.3,0.7,0.3
			c0.7,0,1.3-0.4,1.9-1.3l0.3,0.1c-0.3,0.5-0.6,0.9-1.1,1.2c-0.5,0.3-1,0.5-1.5,0.5c-0.5,0-0.9-0.2-1.2-0.5C11.1,46.1,11,45.6,11,45
			c0-0.7,0.2-1.4,0.5-2.2s0.8-1.5,1.4-2c0.6-0.5,1.3-0.8,2-0.8c0.4,0,0.7,0.1,1,0.3s0.4,0.5,0.4,0.8c0,0.3-0.1,0.5-0.3,0.7
			c-0.2,0.2-0.4,0.3-0.7,0.3c-0.2,0-0.3,0-0.4-0.1c-0.1-0.1-0.1-0.2-0.1-0.4c0-0.2,0.1-0.4,0.3-0.6c0.2-0.2,0.4-0.3,0.7-0.3
			c-0.2-0.3-0.5-0.4-0.9-0.4C14.4,40.2,14,40.4,13.6,40.9z"/>
		<path class="st0" d="M22.6,44.6h0.2l-0.3,0.9c-0.3,0.9-0.8,1.3-1.5,1.3c-0.1,0-0.3,0-0.4-0.1c-0.1-0.1-0.2-0.1-0.3-0.3
			c-0.1-0.1-0.1-0.3-0.1-0.4c0-0.2,0.1-0.6,0.2-1l0.4-1.6c-0.5,1.2-1,2.1-1.4,2.6s-1,0.8-1.5,0.8c-0.7,0-1.1-0.3-1.1-1
			c0-0.3,0.1-0.6,0.2-0.9l1.2-3.7c0.1-0.2,0.1-0.4,0.1-0.5c0-0.2-0.1-0.3-0.3-0.3c-0.2,0-0.3,0.1-0.5,0.3c-0.2,0.2-0.3,0.5-0.5,1
			l-0.2,0.5h-0.2l0.3-0.9c0.3-0.9,0.8-1.3,1.5-1.3c0.6,0,0.9,0.3,0.9,0.8c0,0.3-0.1,0.6-0.2,1L18,45.4c-0.1,0.3-0.1,0.5-0.1,0.6
			c0,0.3,0.1,0.4,0.4,0.4c0.3,0,0.7-0.2,1.1-0.7c0.4-0.5,0.8-1.2,1.2-2c0.4-0.9,0.7-1.9,1-2.9l0.2-0.6c0.5,0,0.9-0.1,1.2-0.2
			l-1.6,5.7c-0.1,0.2-0.1,0.4-0.1,0.5c0,0.2,0.1,0.3,0.3,0.3c0.2,0,0.4-0.1,0.5-0.3c0.2-0.2,0.3-0.5,0.5-1L22.6,44.6z"/>
		<path class="st0" d="M26.4,40.9c-0.4,0.5-0.8,1.1-1,1.8c-0.3,0.8-0.4,1.6-0.4,2.4c0,0.4,0.1,0.7,0.2,0.9c0.2,0.2,0.4,0.3,0.7,0.3
			c0.7,0,1.3-0.4,1.9-1.3l0.3,0.1c-0.3,0.5-0.6,0.9-1.1,1.2c-0.5,0.3-1,0.5-1.5,0.5c-0.5,0-0.9-0.2-1.2-0.5
			c-0.3-0.3-0.5-0.8-0.5-1.4c0-0.7,0.2-1.4,0.5-2.2s0.8-1.5,1.4-2c0.6-0.5,1.3-0.8,2-0.8c0.4,0,0.7,0.1,1,0.3S29,40.7,29,41
			c0,0.3-0.1,0.5-0.3,0.7c-0.2,0.2-0.4,0.3-0.7,0.3c-0.2,0-0.3,0-0.4-0.1c-0.1-0.1-0.1-0.2-0.1-0.4c0-0.2,0.1-0.4,0.3-0.6
			c0.2-0.2,0.4-0.3,0.7-0.3c-0.2-0.3-0.5-0.4-0.9-0.4C27.2,40.2,26.8,40.4,26.4,40.9z"/>
		<path class="st0" d="M35.3,44.6l-0.3,0.9c-0.3,0.9-0.8,1.3-1.5,1.3c-0.6,0-0.9-0.3-0.9-0.8c0-0.3,0.1-0.6,0.2-1l1.2-3.7
			C34,41.2,34,41,34,40.8c0-0.3-0.1-0.4-0.4-0.4c-0.3,0-0.7,0.2-1,0.6c-0.4,0.4-0.7,1-1.1,1.7c-0.4,0.7-0.7,1.5-1,2.5L30,46.7h-1.1
			l2.5-8.5c0-0.1,0.1-0.3,0.1-0.3c0-0.2-0.1-0.3-0.2-0.4s-0.4-0.1-0.7-0.1l0.1-0.3c0.9,0,1.7-0.2,2.3-0.5l-1.9,6.3
			c0.5-1,0.9-1.8,1.4-2.2c0.5-0.5,1-0.7,1.5-0.7c0.7,0,1,0.3,1,1c0,0.3-0.1,0.6-0.2,1l-1.2,3.7c-0.1,0.2-0.1,0.4-0.1,0.5
			c0,0.2,0.1,0.3,0.3,0.3c0.2,0,0.3-0.1,0.5-0.3c0.2-0.2,0.3-0.5,0.5-1l0.2-0.5H35.3z"/>
		<path class="st0" d="M41.7,44.6H42l-0.3,0.9c-0.2,0.5-0.4,0.8-0.7,1s-0.5,0.3-0.8,0.3c-0.2,0-0.3,0-0.4-0.1
			c-0.1-0.1-0.2-0.1-0.3-0.2c-0.1-0.1-0.1-0.3-0.1-0.4c0-0.2,0-0.4,0.1-0.6c0.1-0.2,0.1-0.4,0.1-0.4l0.2-0.9c-0.4,1-0.8,1.6-1.2,2.1
			c-0.4,0.4-0.9,0.6-1.3,0.6c-0.4,0-0.7-0.1-0.9-0.4S36,45.8,36,45.3c0-0.7,0.2-1.5,0.6-2.3c0.4-0.9,0.8-1.6,1.4-2.2
			s1.2-0.9,1.8-0.9c0.2,0,0.4,0.1,0.6,0.3c0.1,0.2,0.2,0.4,0.3,0.7l0.2-0.8c0.5,0,0.9-0.1,1.2-0.2l-1.6,5.7c0,0,0,0.1-0.1,0.2
			c0,0.1,0,0.2,0,0.3c0,0.2,0.1,0.3,0.3,0.3c0.4,0,0.7-0.4,1-1.3L41.7,44.6z M38.5,45.9c0.3-0.4,0.7-0.9,1-1.5
			c0.3-0.6,0.6-1.3,0.8-2l0.2-0.9c0-0.1,0-0.2,0-0.3c0-0.4-0.1-0.6-0.2-0.8c-0.1-0.2-0.3-0.3-0.5-0.3c-0.4,0-0.8,0.3-1.2,0.9
			c-0.4,0.6-0.8,1.3-1,2.1c-0.3,0.8-0.4,1.6-0.4,2.3c0,0.3,0,0.6,0.1,0.8c0.1,0.2,0.2,0.2,0.3,0.2C37.8,46.5,38.1,46.3,38.5,45.9z"
			/>
		<path class="st0" d="M48.2,40.1c0.1,0.1,0.2,0.3,0.2,0.5c0,0.3-0.1,0.5-0.3,0.7c-0.2,0.2-0.4,0.3-0.6,0.3c-0.2,0-0.3,0-0.4-0.1
			C47,41.4,47,41.3,47,41.1c0-0.2,0.1-0.4,0.2-0.5c0.1-0.1,0.2-0.2,0.4-0.3c0,0-0.1-0.1-0.1-0.1c-0.5,0-1,0.5-1.5,1.5
			c-0.5,1-1.1,2.3-1.5,3.9l-0.3,1H43l1.5-5.5c0.1-0.2,0.1-0.4,0.1-0.5c0-0.2-0.1-0.3-0.3-0.3c-0.2,0-0.4,0.1-0.5,0.3
			c-0.2,0.2-0.3,0.5-0.5,1l-0.2,0.5H43l0.3-0.9c0.3-0.9,0.8-1.3,1.5-1.3c0.5,0,0.7,0.2,0.7,0.7c0,0.2-0.1,0.6-0.2,1L45,43.3
			c0.5-1.2,0.9-2.1,1.3-2.6s0.9-0.8,1.4-0.8C47.9,39.9,48.1,40,48.2,40.1z"/>
	</g>
	<g>
		<path class="st0" d="M15.1,26.1c-0.4-0.5-0.7-1.2-0.8-1.8c0-0.2-0.3-0.3-0.5-0.3c-0.2,0-0.4,0.2-0.4,0.4c0.1,0.9,0.3,1.7,0.8,2.4
			c1.3,1.9,3.8,2.7,5.9,1.9c1.3-0.5,2.3-1.4,2.9-2.7c0.1-0.2,0.1-0.3,0.2-0.5l0.1-0.3l0.1-0.2c0.1-0.3,0.2-0.5,0.3-0.8
			c0.1-0.3,0.2-0.5,0.4-0.8c0.1-0.3,0.3-0.5,0.5-0.7c0.7-1,1.5-1.9,2.5-2.6c0.3-0.2,0.5-0.4,0.8-0.5l0.4-0.3
			c0.2-0.1,0.3-0.2,0.5-0.3c1.8-1.3,3.2-3.2,3.9-5.3c0.9-2.9,0.6-6-0.9-8.6c-1.4-2.4-3.7-4.2-6.4-4.9c-1.2-0.3-2.5-0.4-3.7-0.3
			c-1.1,0.1-2.2,0.4-3.2,0.9c-0.9,0.4-1.7,0.9-2.4,1.6c-0.6,0.5-1.1,1.2-1.6,1.8c-0.1,0.2,0,0.4,0.2,0.5c0,0,0,0,0,0l0,0
			C14.8,5,15,5,15.1,4.9c0.5-0.6,1-1.1,1.6-1.5c1.5-1.1,3.2-1.8,5.1-1.9c1.1-0.1,2.1,0.1,3.2,0.3C27.2,2.5,29.1,4,30.3,6
			c0.6,1.1,1,2.2,1.1,3.5l0,0.5c0,0.2,0,0.3,0,0.5c0,0.3,0,0.6,0,0.9c-0.1,0.6-0.2,1.2-0.4,1.8c-0.6,1.8-1.7,3.3-3.2,4.4
			c-0.1,0.1-0.2,0.2-0.4,0.3l-0.4,0.3c-0.3,0.2-0.6,0.4-0.9,0.6c-1.1,0.8-2.1,1.9-2.9,3c-0.2,0.3-0.4,0.6-0.5,0.9
			c-0.2,0.3-0.3,0.6-0.4,1c-0.1,0.3-0.2,0.6-0.3,0.9l-0.1,0.2L21.8,25c0,0.1-0.1,0.2-0.1,0.3c-0.4,0.9-1.1,1.6-2,2
			c-0.8,0.3-1.7,0.4-2.6,0.1C16.3,27.2,15.6,26.7,15.1,26.1z"/>
		<path class="st0" d="M19.5,14.1c-0.1,0.1-0.1,0.1-0.2,0.2l-0.1,0.1L19,14.6c-0.5,0.3-1,0.7-1.4,1c-0.7,0.5-1.4,1-2,1.6
			c0,0,0.1,0.2,0.2,0.4c0.1,0.2,0.2,0.3,0.3,0.3c0.8-0.3,1.6-0.6,2.4-1.1c0.5-0.2,1-0.5,1.5-0.8l0.2-0.1l0.2-0.2
			c0.2-0.1,0.3-0.2,0.5-0.4c0.9-0.9,1.2-2.3,0.7-3.4c-0.3-0.7-0.8-1.3-1.5-1.7c-0.6-0.3-1.2-0.4-1.8-0.3c-0.2,0-0.5,0.1-0.7,0.2
			c0,0,0-0.1,0-0.1c0.1-0.5,0.4-1,0.7-1.4c0.3-0.5,0.7-0.9,1.2-1.3c1-0.8,2.3-1.2,3.6-1.1c2.3,0.2,4.1,2.3,3.9,4.6
			c0,0.4-0.1,0.8-0.3,1.1c-0.2,0.6-0.6,1.1-1,1.6c-0.2,0.2-0.5,0.4-0.7,0.6l-0.5,0.3c-0.2,0.1-0.3,0.2-0.5,0.3c-1.1,0.9-2,2-2.6,3.2
			c-0.5,0.9-0.8,1.9-1.1,2.9c0,0.1,0.1,0.3,0.4,0.3c0.2,0.1,0.4,0,0.4-0.1c0.4-0.9,0.9-1.7,1.4-2.5c0.7-1,1.5-1.9,2.4-2.6
			c0.1-0.1,0.3-0.2,0.4-0.3l0.4-0.3c2.8-1.6,3.8-5.2,2.2-8.1c-0.5-0.9-1.2-1.6-2.1-2.1C24.9,4.8,24,4.5,23,4.5
			c-2.5-0.1-4.9,1.2-6.1,3.4c-0.3,0.6-0.6,1.3-0.7,2c-0.1,0.6-0.1,1.2,0.1,1.8c0.1,0.5,0.3,0.9,0.5,1.4c0,0.1,0.3,0.1,0.5,0
			s0.4-0.2,0.3-0.3c-0.1-0.4-0.2-0.8-0.3-1.2c0-0.1,0-0.1,0-0.2c0.3-0.1,0.6-0.1,0.9-0.1c0.4,0,0.7,0.2,1,0.4
			c0.3,0.2,0.5,0.5,0.7,0.9c0.1,0.4,0.1,0.8-0.1,1.1C19.8,13.8,19.7,14,19.5,14.1z"/>
		<path class="st0" d="M29.3,25.8c1.5-0.4,2.6-1.5,3-3c0.1-0.5,0.1-1.1-0.1-1.6c-0.2,0-0.3-0.1-0.5,0c-0.1,0-0.3,0-0.4,0
			c-0.2,0.3-0.3,0.7-0.5,1.1c-0.5,0.9-1.2,1.6-2,2c-0.4,0.2-0.8,0.4-1.1,0.5c0,0.2,0,0.3,0,0.5c0,0.1,0,0.3,0,0.4
			C28.2,25.9,28.8,25.9,29.3,25.8z"/>
		<path class="st0" d="M30.9,29.5c2.5-0.7,4.4-2.7,5.1-5.1c0.3-0.9,0.3-1.8,0.1-2.7c0,0-0.2-0.1-0.5-0.1c-0.1,0-0.3,0-0.4,0.1
			c-0.2,0.8-0.4,1.5-0.7,2.2c-0.8,1.9-2.3,3.4-4.2,4.2c-0.7,0.3-1.5,0.5-2.2,0.7c-0.1,0.2-0.1,0.3-0.1,0.5c0,0.2,0,0.4,0.1,0.4
			C29.1,29.9,30,29.8,30.9,29.5z"/>
	</g>
</g>
</svg>
