<svg xmlns="http://www.w3.org/2000/svg" viewBox="0 0 89.15 11.01"><defs><style>.cls-1{fill:#211915;}.cls-2{fill:#a0131f;}.cls-3{fill:#fff;}</style></defs><title>logo-la-tercera</title><g id="Capa_2" data-name="Capa 2"><g id="Capa_1-2" data-name="Capa 1"><polygon class="cls-1" points="28.29 1.71 31.45 1.71 31.45 10.86 33.13 10.86 33.13 1.71 36.29 1.71 36.29 0.22 28.29 0.22 28.29 1.71"/><path class="cls-1" d="M52.61,4.29C52.61,1.83,51,.22,48.07.22H45.35V10.86H47V8.32h1a4.9,4.9,0,0,0,.77,0l1.82,2.58h2l-2.16-3a3.66,3.66,0,0,0,2.13-3.55M48,6.89H47V1.71h1c2,0,2.88,1,2.88,2.58s-.83,2.6-2.88,2.6Z"/><path class="cls-1" d="M58.75,9.48a3.95,3.95,0,0,1-.07-7.88,3.39,3.39,0,0,1,3,1.45L63,2.14A4.9,4.9,0,0,0,58.73.08a5.46,5.46,0,0,0,0,10.92,5.27,5.27,0,0,0,4.56-2.17l-1.3-.9a3.76,3.76,0,0,1-3.19,1.55"/><path class="cls-1" d="M79.34,4.29c0-2.46-1.61-4.07-4.54-4.07H72.08V10.86h1.67V8.32h1a5,5,0,0,0,.77,0l1.81,2.58h2l-2.16-3a3.66,3.66,0,0,0,2.13-3.55m-4.6,2.6h-1V1.71h1c2,0,2.88,1,2.88,2.58s-.83,2.6-2.88,2.6Z"/><path class="cls-1" d="M84.47,0h-.09L79.71,10.86H81.4L82,9.37h4.76l.61,1.49h1.77ZM82.64,7.89l1.77-4.21,1.74,4.21Z"/><polygon class="cls-1" points="65.82 7.57 70.34 7.57 70.34 6.12 65.82 6.12 65.82 1.71 71.07 1.71 71.07 0.22 64.14 0.22 64.14 10.86 71.08 10.86 71.08 9.37 65.82 9.37 65.82 7.57"/><polygon class="cls-1" points="39.01 7.57 43.54 7.57 43.54 6.12 39.01 6.12 39.01 1.71 44.33 1.71 44.33 0.22 37.34 0.22 37.34 10.86 44.33 10.86 44.33 9.37 39.01 9.37 39.01 7.57"/><path class="cls-1" d="M23.59,0l-4,9.38H15.32V.23H13.64V10.87h7l.61-1.49H26l.62,1.49h1.76L23.68,0h-.09ZM21.86,7.89l1.76-4.21,1.74,4.21Z"/><rect class="cls-2" y="0.19" width="10.81" height="10.81"/><polygon class="cls-3" points="6.36 3.44 4.58 3.44 4.58 2.6 9.07 2.6 9.07 3.44 7.3 3.44 7.3 8.58 6.36 8.58 6.36 3.44"/><polygon class="cls-3" points="1.74 2.6 2.68 2.6 2.68 7.75 5.38 7.75 5.38 8.59 1.74 8.59 1.74 2.6"/></g></g></svg>