<?xml version="1.0" encoding="utf-8"?>
<!-- Generator: Adobe Illustrator 23.1.0, SVG Export Plug-In . SVG Version: 6.00 Build 0)  -->
<svg version="1.1" id="Capa_1" xmlns="http://www.w3.org/2000/svg" xmlns:xlink="http://www.w3.org/1999/xlink" x="0px" y="0px"
	 viewBox="0 0 17 17" style="enable-background:new 0 0 17 17;" xml:space="preserve">
<title>newspapper</title>
<g>
	<rect x="8" y="3" width="5" height="1"/>
	<rect x="8" y="5" width="5" height="1"/>
	<rect x="8" y="7" width="5" height="1"/>
	<rect x="2" y="9" width="11" height="1"/>
	<rect x="2" y="11" width="11" height="1"/>
	<rect x="2" y="13" width="11" height="1"/>
	<path d="M16.5,3H15V0.5C15,0.2,14.8,0,14.5,0h-14C0.2,0,0,0.2,0,0.5v14C0,15.9,1.1,17,2.5,17h12c1.4,0,2.5-1.1,2.5-2.5v-11
		C17,3.2,16.8,3,16.5,3z M16,14.5c0,0.8-0.7,1.5-1.5,1.5l0,0h-12C1.7,16,1,15.3,1,14.5V1h13v12.5c0,0.3,0.2,0.5,0.5,0.5
		s0.5-0.2,0.5-0.5V4h1V14.5z"/>
	<path d="M7,3H2v5h5V3z M6,7H3V4h3V7z"/>
</g>
</svg>
