<svg xmlns="http://www.w3.org/2000/svg" viewBox="0 0 337.35 127.14"><defs><style>.cls-1{opacity:0.2;}.cls-2{fill:none;stroke:#b4b4b9;}.cls-2,.cls-4{stroke-miterlimit:10;stroke-width:0.5px;}.cls-3,.cls-4{fill:#b4b4b9;}.cls-4{stroke:#fff;}</style></defs><title>partitura-intro</title><g id="Capa_2" data-name="Capa 2"><g id="Capa_1-2" data-name="Capa 1"><g class="cls-1"><line class="cls-2" x1="0.03" y1="47.18" x2="337.32" y2="9.42"/><line class="cls-2" x1="0.03" y1="59.54" x2="337.32" y2="21.78"/><line class="cls-2" x1="251.78" y1="43.89" x2="337.32" y2="34.14"/><line class="cls-2" x1="230.45" y1="46.32" x2="240.68" y2="45.15"/><line class="cls-2" x1="192.04" y1="50.7" x2="218.47" y2="47.68"/><line class="cls-2" x1="95.89" y1="61.66" x2="179.45" y2="52.13"/><line class="cls-2" x1="0.03" y1="71.89" x2="73.65" y2="64.19"/><line class="cls-2" x1="272.7" y1="53.86" x2="337.32" y2="46.49"/><line class="cls-2" x1="0.03" y1="84.25" x2="337.32" y2="46.49"/><line class="cls-2" x1="0.03" y1="96.61" x2="337.32" y2="58.85"/><polygon class="cls-3" points="7.14 95.8 4.21 96.13 4.21 46.7 7.14 46.37 7.14 95.8"/><polygon class="cls-3" points="335.16 59.19 332.23 59.52 332.23 10.1 335.16 9.76 335.16 59.19"/><path class="cls-4" d="M324.3,1.12a.87.87,0,0,0-1.74,0v25a7.43,7.43,0,0,0-5.71-.84c-3.51.79-5.89,3.48-5.32,6s3.87,3.95,7.37,3.17c3.13-.7,5.35-2.92,5.4-5.19h0ZM319.84,32.6c-2.25.92-4.61.65-5.28-.6s.62-3,2.87-3.93,4.61-.64,5.28.61S322.09,31.69,319.84,32.6Z"/><path class="cls-4" d="M288.58,19.15c.3,1.34-1,2.77-2.82,3.18s-3.6-.33-3.9-1.67,1-2.77,2.82-3.18S288.28,17.81,288.58,19.15Z"/><path class="cls-4" d="M301.69,17.42c.3,1.34-1,2.77-2.81,3.18s-3.6-.33-3.9-1.67,1-2.77,2.81-3.18S301.39,16.08,301.69,17.42Z"/><path class="cls-4" d="M300.52,3l-12,1.47a1,1,0,0,0-.91,1V19.9h.92V11.56l12.2-1.49v8.1h.92V4A1,1,0,0,0,300.52,3Zm-11.95,7.14V9.31a1.05,1.05,0,0,1,.92-1L299.6,7a1,1,0,0,1,1.17,1v.56Z"/><path class="cls-4" d="M68.66,73.56a18.44,18.44,0,0,0-4.9-11.28,18.69,18.69,0,0,0-16-5.65c-.12-1.46-.25-2.93-.38-4.4-.3-3.51-.57-7-.77-10.53.47-.48.93-1,1.36-1.42,6.75-7.12,13.57-16.09,15-26.07.45-3.09.32-6.35-2-8.71a7.89,7.89,0,0,0-6.67-2.22c-3.78.56-6.65,3.88-8,7.45-1.79,4.59-2.33,10-2.62,14.87-.17,3-.22,6-.19,9,0,1.6.07,3.2.13,4.8-.71.42-1.45.86-2.21,1.33C30,47.71,15.46,59.54,19,74.68a19.61,19.61,0,0,0,2.2,5.46,23.87,23.87,0,0,0,11.43,9.65,35.54,35.54,0,0,0,6.62,2c.76.15,8.43,1,8.41.78l.41,4.26c.72,7.34,1.54,15.79-1.17,22.83a7.29,7.29,0,0,1-1.75,2.83c-2.51,2.27-7.64,1.89-10.4.3a3.62,3.62,0,0,1-.33-.2,5.68,5.68,0,0,0,1.6.24,5.75,5.75,0,1,0-5.72-6.17,8.53,8.53,0,0,0-.12,2.37c.39,4.52,4.13,7.25,8.4,7.77,5.53.68,9.29-2.23,11-7.33,3-8.64,1.37-18.07.64-26.94,0,.11,6.15-1.35,6.67-1.5a16.42,16.42,0,0,0,9-6.73A17.26,17.26,0,0,0,68.66,73.56ZM46.29,25.74c.24-5.62.4-10.81,3.92-15.52,1.17-1.56,2.73-3,4.67-3.27a5.46,5.46,0,0,1,5.46,3.5c2,5.06-2.63,12.16-5.24,16.28a74.84,74.84,0,0,1-4.9,6.85c-.5.61-3.86,3.57-3.83,4.22,0-1.08-.08-2.17-.11-3.25C46.18,31.6,46.17,28.66,46.29,25.74ZM42.55,89.13c-8.51-1.9-17.5-10-16.67-19.44a18.28,18.28,0,0,1,2.64-7.36,56,56,0,0,1,7.28-9.58c1.34-1.46,2.72-2.88,4.1-4.28.63-.64,4-3.27,3.92-4q.24,4,.57,8l.39,4.84a19.83,19.83,0,0,0-2,.75,10.52,10.52,0,0,0-1,.5C35.15,62.21,30.93,70.3,33,77.8a14.81,14.81,0,0,0,1.78,4l0,0a.77.77,0,0,0,1.39-.59v0c-1.25-6.41,1.87-13.41,7.87-16.22.44-.18.89-.35,1.34-.51l.48,5.68L47.38,88l.15,1.79A26.92,26.92,0,0,1,42.55,89.13ZM62.12,77.28a14.19,14.19,0,0,1-4,9.3,11,11,0,0,1-7.94,3.19c0-.67-.08-1.34-.13-2l-.6-8.89L48.77,70l-.48-6c.45-.06.92,0,1.37-.05h.22a13.24,13.24,0,0,1,10.71,6.64A12.93,12.93,0,0,1,62.12,77.28Z"/><path class="cls-4" d="M36.8,112.8a.59.59,0,0,0-.67-.46,5.44,5.44,0,0,0-2.2.86,5.25,5.25,0,0,0-2,2.25.59.59,0,0,0,.51.84A.6.6,0,0,0,33,116a6.24,6.24,0,0,1,1.81-1.77,6.33,6.33,0,0,1,1.6-.76A.59.59,0,0,0,36.8,112.8Z"/><path class="cls-4" d="M31.92,116.76a.61.61,0,0,0-.35.78.59.59,0,0,0,.53.4.73.73,0,0,0,.25,0,.63.63,0,0,0,.34-.32.61.61,0,0,0-.77-.82Z"/></g></g></g></svg>