<svg xmlns="http://www.w3.org/2000/svg" viewBox="0 0 337.29 111.64"><defs><style>.cls-1{fill:#7a5d22;}</style></defs><title>partitura-color</title><g id="Capa_2" data-name="Capa 2"><g id="Capa_1-2" data-name="Capa 1"><line class="cls-1" y1="42.23" x2="337.29" y2="4.48"/><line class="cls-1" y1="54.59" x2="337.29" y2="16.84"/><line class="cls-1" x1="251.75" y1="38.95" x2="337.29" y2="29.19"/><line class="cls-1" x1="230.42" y1="41.38" x2="240.65" y2="40.21"/><line class="cls-1" x1="192.01" y1="45.75" x2="218.45" y2="42.74"/><line class="cls-1" y1="66.95" x2="333.67" y2="29.7"/><line class="cls-1" x1="272.67" y1="48.92" x2="337.29" y2="41.55"/><line class="cls-1" y1="79.31" x2="337.29" y2="41.55"/><line class="cls-1" y1="91.66" x2="337.29" y2="53.91"/><polygon class="cls-1" points="7.11 90.85 4.18 91.19 4.18 41.76 7.11 41.42 7.11 90.85"/><polygon class="cls-1" points="335.13 54.25 332.2 54.58 332.2 5.15 335.13 4.82 335.13 54.25"/><path class="cls-1" d="M64.46,67.2a15.42,15.42,0,0,0-4.09-9.4A15.58,15.58,0,0,0,47,53.09c-.1-1.22-.21-2.45-.32-3.67-.25-2.93-.48-5.85-.65-8.77l1.14-1.18c5.62-5.94,11.31-13.42,12.52-21.73.37-2.58.26-5.29-1.67-7.26a6.56,6.56,0,0,0-5.55-1.85c-3.16.47-5.55,3.24-6.71,6.21-1.49,3.83-1.94,8.32-2.18,12.39-.14,2.51-.18,5-.16,7.5,0,1.34.06,2.67.11,4-.59.35-1.21.71-1.85,1.11-9.45,5.81-21.56,15.68-18.59,28.29a16.66,16.66,0,0,0,1.84,4.55,19.83,19.83,0,0,0,9.53,8A30.16,30.16,0,0,0,40,82.38,61.24,61.24,0,0,0,47,83l.34,3.55c.6,6.12,1.28,13.16-1,19A6.13,6.13,0,0,1,44.89,108c-2.1,1.9-6.37,1.57-8.67.26l-.27-.17a4.86,4.86,0,0,0,1.33.19,4.79,4.79,0,1,0-4.77-5.13,7.63,7.63,0,0,0-.1,2c.33,3.77,3.44,6,7,6.48,4.61.56,7.75-1.86,9.21-6.11,2.48-7.2,1.14-15.06.53-22.46,0,.1,5.13-1.12,5.57-1.24a13.66,13.66,0,0,0,7.45-5.61A14.4,14.4,0,0,0,64.46,67.2ZM45.81,27.34c.2-4.68.33-9,3.27-12.93A6.17,6.17,0,0,1,53,11.69a4.55,4.55,0,0,1,4.55,2.92c1.7,4.21-2.19,10.13-4.37,13.56a62.26,62.26,0,0,1-4.08,5.71c-.41.51-3.21,3-3.19,3.52,0-.91-.07-1.81-.09-2.71C45.72,32.23,45.71,29.78,45.81,27.34ZM42.69,80.17C35.6,78.59,28.11,71.84,28.81,64A15,15,0,0,1,31,57.84a46.06,46.06,0,0,1,6.06-8c1.11-1.21,2.26-2.39,3.42-3.57.52-.52,3.3-2.72,3.26-3.31.14,2.23.3,4.44.48,6.65.1,1.35.21,2.69.33,4a14.92,14.92,0,0,0-1.66.62,6,6,0,0,0-.84.42c-5.53,3-9.05,9.78-7.33,16a12.25,12.25,0,0,0,1.48,3.37s0,0,0,0a.65.65,0,0,0,1.17-.49v0A12.44,12.44,0,0,1,44,60.1c.36-.14.73-.29,1.11-.42l.4,4.73,1.25,14.78.12,1.5A22.54,22.54,0,0,1,42.69,80.17ZM59,70.3a11.8,11.8,0,0,1-3.34,7.75,9.21,9.21,0,0,1-6.61,2.65c0-.55-.07-1.11-.11-1.67l-.5-7.41-.56-7.4c-.14-1.68-.27-3.35-.4-5,.38-.05.76,0,1.14-.05h.19a11,11,0,0,1,8.92,5.53A10.71,10.71,0,0,1,59,70.3Z"/><path class="cls-1" d="M37.9,99.9a.49.49,0,0,0-.56-.38,4.5,4.5,0,0,0-1.83.71,4.43,4.43,0,0,0-1.65,1.88.49.49,0,0,0,.22.64.83.83,0,0,0,.21.06.51.51,0,0,0,.44-.22,5.08,5.08,0,0,1,1.51-1.48,5.39,5.39,0,0,1,1.33-.63A.49.49,0,0,0,37.9,99.9Z"/><path class="cls-1" d="M33.84,103.2a.51.51,0,0,0-.3.65.53.53,0,0,0,.45.33.64.64,0,0,0,.2,0,.51.51,0,0,0,.29-.27.5.5,0,0,0,0-.38A.51.51,0,0,0,33.84,103.2Z"/><rect class="cls-1" x="153.72" width="23.95" height="2.24"/><path class="cls-1" d="M90.28,40.18a.88.88,0,0,0-1.75,0v25a7.43,7.43,0,0,0-5.71-.84c-3.51.78-5.89,3.47-5.32,6s3.87,4,7.37,3.16c3.13-.7,5.35-2.91,5.4-5.18h0Z"/><path class="cls-1" d="M120.28,50.18a.88.88,0,0,0-1.75,0v25a7.43,7.43,0,0,0-5.71-.84c-3.51.78-5.89,3.47-5.32,6s3.87,4,7.37,3.16c3.13-.7,5.35-2.91,5.4-5.18h0Z"/><path class="cls-1" d="M150.28,20.18a.88.88,0,0,0-1.75,0v25a7.43,7.43,0,0,0-5.71-.84c-3.51.78-5.89,3.47-5.32,6s3.87,4,7.37,3.16c3.13-.7,5.35-2.91,5.4-5.18h0Z"/><path class="cls-1" d="M178.28,38.18a.88.88,0,0,0-1.75,0v25a7.43,7.43,0,0,0-5.71-.84c-3.51.78-5.89,3.47-5.32,6s3.87,4,7.37,3.16c3.13-.7,5.35-2.91,5.4-5.18h0Z"/></g></g></svg>